<?xml version="1.0" standalone="no"?>
<!DOCTYPE svg PUBLIC "-//W3C//DTD SVG 20010904//EN"
 "http://www.w3.org/TR/2001/REC-SVG-20010904/DTD/svg10.dtd">
<svg version="1.0" xmlns="http://www.w3.org/2000/svg"
 width="260.000000pt" height="260.000000pt" viewBox="0 0 260.000000 260.000000"
 preserveAspectRatio="xMidYMid meet">
<metadata>
Created by potrace 1.14, written by Peter Selinger 2001-2017
</metadata>
<g transform="translate(0.000000,260.000000) scale(0.100000,-0.100000)"
fill="#000000" stroke="none">
<path d="M1176 2590 c-308 -29 -572 -154 -797 -379 -196 -196 -308 -406 -360
-673 -26 -135 -26 -361 0 -496 97 -498 469 -892 961 -1016 95 -24 119 -26 320
-26 201 0 225 2 320 26 492 124 864 517 961 1016 26 135 26 361 0 496 -52 267
-164 477 -360 673 -113 113 -206 181 -339 248 -210 106 -464 153 -706 131z"/>
</g>
</svg>
